<svg xmlns="http://www.w3.org/2000/svg" width="1280" height="800" font-family="Helvetica, Arial, sans-serif">
  <defs>
    <linearGradient id="bg" x1="0" y1="0" x2="1" y2="1">
      <stop offset="0" stop-color="#eef2ff"/>
      <stop offset="1" stop-color="#f8fafc"/>
    </linearGradient>
    <linearGradient id="brand" x1="0" y1="0" x2="1" y2="1">
      <stop offset="0" stop-color="#6366f1"/>
      <stop offset="1" stop-color="#7c3aed"/>
    </linearGradient>
  </defs>
  <rect width="1280" height="800" fill="url(#bg)"/>

  <!-- Left: headline -->
  <g transform="translate(90,200)">
    <rect width="64" height="64" rx="14" fill="url(#brand)"/>
    <path d="M53 13 L12 29 L28 35.5 Z" fill="#fff"/>
    <path d="M53 13 L28 35.5 L28 49.5 L35 41 Z" fill="#fff" opacity="0.85"/>
    <text y="118" font-size="46" font-weight="bold" fill="#0f172a">Cover letters written from</text>
    <text y="172" font-size="46" font-weight="bold" fill="#0f172a">your real career story</text>
    <text y="236" font-size="21" fill="#475569">One click pulls the company, role, and description</text>
    <text y="266" font-size="21" fill="#475569">from the job posting you're reading.</text>
    <g transform="translate(0,310)" font-size="19" fill="#334155">
      <circle cx="8" cy="-6" r="4" fill="#6366f1"/>
      <text x="26">Grounded in your full career history</text>
      <circle cx="8" cy="34" r="4" fill="#6366f1"/>
      <text x="26" y="40">Works on major job boards &amp; career sites</text>
      <circle cx="8" cy="74" r="4" fill="#6366f1"/>
      <text x="26" y="80">Your own API key — everything stays in your browser</text>
    </g>
  </g>

  <!-- Right: side panel mockup -->
  <g transform="translate(770,60)">
    <rect width="420" height="680" rx="18" fill="#ffffff" stroke="#e2e8f0" stroke-width="2"/>
    <!-- header -->
    <text x="24" y="42" font-size="16" font-weight="bold" fill="#0f172a">Career Copilot</text>
    <rect x="180" y="24" width="70" height="28" rx="8" fill="#0f172a"/>
    <text x="215" y="43" font-size="12" font-weight="bold" fill="#ffffff" text-anchor="middle">Generate</text>
    <text x="285" y="43" font-size="12" fill="#64748b">Profile</text>
    <text x="345" y="43" font-size="12" fill="#64748b">Quick Copy</text>
    <line x1="0" y1="64" x2="420" y2="64" stroke="#e2e8f0" stroke-width="2"/>

    <!-- target role card -->
    <rect x="20" y="84" width="380" height="240" rx="10" fill="#ffffff" stroke="#e2e8f0" stroke-width="1.5"/>
    <text x="36" y="114" font-size="11" font-weight="bold" fill="#94a3b8" letter-spacing="1">TARGET ROLE</text>
    <path d="M383 106 a8 8 0 1 1 -2.3,-5.6 M383 100 v7 h-7" stroke="#94a3b8" stroke-width="2" fill="none" stroke-linecap="round"/>
    <rect x="36" y="128" width="170" height="34" rx="7" fill="#fff" stroke="#cbd5e1" stroke-width="1.5"/>
    <text x="48" y="150" font-size="13" fill="#0f172a">Firecrawl</text>
    <rect x="214" y="128" width="170" height="34" rx="7" fill="#fff" stroke="#cbd5e1" stroke-width="1.5"/>
    <text x="226" y="150" font-size="13" fill="#0f172a">Senior Backend Engineer</text>
    <rect x="36" y="172" width="348" height="136" rx="7" fill="#fff" stroke="#cbd5e1" stroke-width="1.5"/>
    <text x="48" y="194" font-size="12" fill="#334155">We're hiring a senior backend engineer to scale</text>
    <text x="48" y="212" font-size="12" fill="#334155">our crawling infrastructure. You'll own services</text>
    <text x="48" y="230" font-size="12" fill="#334155">handling billions of requests, design APIs used</text>
    <text x="48" y="248" font-size="12" fill="#334155">by thousands of developers, and work across…</text>
    <rect x="48" y="264" width="300" height="9" rx="4" fill="#e2e8f0"/>
    <rect x="48" y="282" width="250" height="9" rx="4" fill="#e2e8f0"/>

    <!-- kind toggle -->
    <rect x="20" y="344" width="380" height="42" rx="10" fill="#f1f5f9"/>
    <rect x="26" y="350" width="184" height="30" rx="8" fill="#ffffff"/>
    <text x="118" y="370" font-size="13" font-weight="bold" fill="#0f172a" text-anchor="middle">Cover letter</text>
    <text x="305" y="370" font-size="13" fill="#64748b" text-anchor="middle">Answer a question</text>

    <!-- steering input -->
    <rect x="20" y="404" width="380" height="36" rx="7" fill="#fff" stroke="#cbd5e1" stroke-width="1.5"/>
    <text x="34" y="427" font-size="12" fill="#94a3b8">Optional: emphasize my startup experience…</text>

    <!-- voice -->
    <text x="20" y="474" font-size="11" font-weight="bold" fill="#94a3b8" letter-spacing="1">VOICE — APPLIES TO EVERY DRAFT</text>
    <text x="20" y="500" font-size="13" font-weight="bold" fill="#0f172a">Tone</text>
    <rect x="20" y="510" width="184" height="36" rx="7" fill="#fff" stroke="#cbd5e1" stroke-width="1.5"/>
    <text x="34" y="533" font-size="13" fill="#0f172a">Professional</text>
    <path d="M186 522 l7 8 7 -8" stroke="#64748b" stroke-width="2" fill="none" transform="translate(-14,0)"/>
    <text x="216" y="500" font-size="13" font-weight="bold" fill="#0f172a">Length</text>
    <rect x="216" y="510" width="184" height="36" rx="7" fill="#fff" stroke="#cbd5e1" stroke-width="1.5"/>
    <text x="230" y="533" font-size="13" fill="#0f172a">Standard</text>
    <path d="M382 522 l7 8 7 -8" stroke="#64748b" stroke-width="2" fill="none" transform="translate(-14,0)"/>

    <!-- generate button -->
    <rect x="20" y="574" width="380" height="44" rx="10" fill="#0f172a"/>
    <text x="210" y="602" font-size="14" font-weight="bold" fill="#ffffff" text-anchor="middle">Generate cover letter</text>
  </g>
</svg>
